solid Bowl_Leds
facet normal -1.0 1.5106963299363733e-16 -3.0429378683776375e-32
  outer loop
    vertex 40.50000000000005 1.4000000000000024 16.500000000000004
    vertex 40.50000000000005 2.9000000000000012 8.499999999999998
    vertex 40.50000000000005 1.400000000000001 8.499999999999998
  endloop
endfacet
facet normal -1.0 1.5106963299363733e-16 -3.0429378683776375e-32
  outer loop
    vertex 40.50000000000005 2.9000000000000012 8.499999999999998
    vertex 40.50000000000005 1.4000000000000024 16.500000000000004
    vertex 40.50000000000005 2.9000000000000026 16.500000000000004
  endloop
endfacet
facet normal -1.0143126227925458e-32 -1.0071308866242491e-16 -1.0
  outer loop
    vertex 40.50000000000005 2.9000000000000026 16.500000000000004
    vertex 25.500000000000078 1.4000000000000037 16.500000000000004
    vertex 25.500000000000078 2.900000000000004 16.500000000000004
  endloop
endfacet
facet normal -1.0143126227925458e-32 -1.0071308866242491e-16 -1.0
  outer loop
    vertex 25.500000000000078 1.4000000000000037 16.500000000000004
    vertex 40.50000000000005 2.9000000000000026 16.500000000000004
    vertex 40.50000000000005 1.4000000000000024 16.500000000000004
  endloop
endfacet
facet normal 1.0 0.0 0.0
  outer loop
    vertex 57.900000000000084 2.9000000000000012 1.9999999999999953
    vertex 57.900000000000084 1.4000000000000037 27.5
    vertex 57.900000000000084 1.4000000000000037 1.9999999999999953
  endloop
endfacet
facet normal 1.0 0.0 0.0
  outer loop
    vertex 57.900000000000084 1.4000000000000037 27.5
    vertex 57.900000000000084 2.9000000000000012 1.9999999999999953
    vertex 57.900000000000084 2.9000000000000012 27.5
  endloop
endfacet
facet normal 0.0 -1.0 0.0
  outer loop
    vertex 57.900000000000084 1.4000000000000037 1.9999999999999953
    vertex 40.50000000000005 1.400000000000001 8.499999999999998
    vertex 9.900000000000016 1.4000000000000037 1.9999999999999953
  endloop
endfacet
facet normal 0.0 -1.0 0.0
  outer loop
    vertex 40.50000000000005 1.400000000000001 8.499999999999998
    vertex 57.900000000000084 1.4000000000000037 1.9999999999999953
    vertex 57.900000000000084 1.4000000000000037 27.5
  endloop
endfacet
facet normal 0.0 -1.0 0.0
  outer loop
    vertex 40.50000000000005 1.400000000000001 8.499999999999998
    vertex 57.900000000000084 1.4000000000000037 27.5
    vertex 40.50000000000005 1.4000000000000024 16.500000000000004
  endloop
endfacet
facet normal 0.0 -1.0 0.0
  outer loop
    vertex 40.50000000000005 1.4000000000000024 16.500000000000004
    vertex 57.900000000000084 1.4000000000000037 27.5
    vertex 25.500000000000078 1.4000000000000037 16.500000000000004
  endloop
endfacet
facet normal 0.0 -1.0 0.0
  outer loop
    vertex 9.900000000000016 1.4000000000000037 1.9999999999999953
    vertex 25.500000000000078 1.4000000000000037 8.499999999999998
    vertex 9.900000000000016 1.4000000000000037 27.5
  endloop
endfacet
facet normal 0.0 -1.0 0.0
  outer loop
    vertex 25.500000000000078 1.4000000000000037 8.499999999999998
    vertex 9.900000000000016 1.4000000000000037 1.9999999999999953
    vertex 40.50000000000005 1.400000000000001 8.499999999999998
  endloop
endfacet
facet normal 0.0 -1.0 0.0
  outer loop
    vertex 9.900000000000016 1.4000000000000037 27.5
    vertex 25.500000000000078 1.4000000000000037 8.499999999999998
    vertex 25.500000000000078 1.4000000000000037 16.500000000000004
  endloop
endfacet
facet normal 0.0 -1.0 0.0
  outer loop
    vertex 9.900000000000016 1.4000000000000037 27.5
    vertex 25.500000000000078 1.4000000000000037 16.500000000000004
    vertex 57.900000000000084 1.4000000000000037 27.5
  endloop
endfacet
facet normal 0.0 1.0 0.0
  outer loop
    vertex 9.900000000000016 2.9000000000000012 1.9999999999999953
    vertex 25.500000000000078 2.900000000000004 8.499999999999998
    vertex 57.900000000000084 2.9000000000000012 1.9999999999999953
  endloop
endfacet
facet normal 0.0 1.0 0.0
  outer loop
    vertex 25.500000000000078 2.900000000000004 8.499999999999998
    vertex 9.900000000000016 2.9000000000000012 1.9999999999999953
    vertex 9.900000000000016 2.9000000000000012 27.5
  endloop
endfacet
facet normal 0.0 1.0 0.0
  outer loop
    vertex 25.500000000000078 2.900000000000004 8.499999999999998
    vertex 9.900000000000016 2.9000000000000012 27.5
    vertex 25.500000000000078 2.900000000000004 16.500000000000004
  endloop
endfacet
facet normal 0.0 1.0 0.0
  outer loop
    vertex 25.500000000000078 2.900000000000004 16.500000000000004
    vertex 9.900000000000016 2.9000000000000012 27.5
    vertex 40.50000000000005 2.9000000000000026 16.500000000000004
  endloop
endfacet
facet normal 0.0 1.0 0.0
  outer loop
    vertex 57.900000000000084 2.9000000000000012 1.9999999999999953
    vertex 40.50000000000005 2.9000000000000012 8.499999999999998
    vertex 57.900000000000084 2.9000000000000012 27.5
  endloop
endfacet
facet normal 0.0 1.0 0.0
  outer loop
    vertex 40.50000000000005 2.9000000000000012 8.499999999999998
    vertex 57.900000000000084 2.9000000000000012 1.9999999999999953
    vertex 25.500000000000078 2.900000000000004 8.499999999999998
  endloop
endfacet
facet normal 0.0 1.0 0.0
  outer loop
    vertex 57.900000000000084 2.9000000000000012 27.5
    vertex 40.50000000000005 2.9000000000000012 8.499999999999998
    vertex 40.50000000000005 2.9000000000000026 16.500000000000004
  endloop
endfacet
facet normal 0.0 1.0 0.0
  outer loop
    vertex 57.900000000000084 2.9000000000000012 27.5
    vertex 40.50000000000005 2.9000000000000026 16.500000000000004
    vertex 9.900000000000016 2.9000000000000012 27.5
  endloop
endfacet
facet normal 1.0 -1.5106963299363733e-16 0.0
  outer loop
    vertex 25.500000000000078 2.900000000000004 8.499999999999998
    vertex 25.500000000000078 1.4000000000000037 16.500000000000004
    vertex 25.500000000000078 1.4000000000000037 8.499999999999998
  endloop
endfacet
facet normal 1.0 -1.5106963299363733e-16 0.0
  outer loop
    vertex 25.500000000000078 1.4000000000000037 16.500000000000004
    vertex 25.500000000000078 2.900000000000004 8.499999999999998
    vertex 25.500000000000078 2.900000000000004 16.500000000000004
  endloop
endfacet
facet normal 0.0 1.1102230246251563e-16 1.0
  outer loop
    vertex 57.900000000000084 1.4000000000000037 27.5
    vertex 9.900000000000016 2.9000000000000012 27.5
    vertex 9.900000000000016 1.4000000000000037 27.5
  endloop
endfacet
facet normal 0.0 1.1102230246251563e-16 1.0
  outer loop
    vertex 9.900000000000016 2.9000000000000012 27.5
    vertex 57.900000000000084 1.4000000000000037 27.5
    vertex 57.900000000000084 2.9000000000000012 27.5
  endloop
endfacet
facet normal 0.0 -1.1102230246251563e-16 -1.0
  outer loop
    vertex 57.900000000000084 2.9000000000000012 1.9999999999999953
    vertex 9.900000000000016 1.4000000000000037 1.9999999999999953
    vertex 9.900000000000016 2.9000000000000012 1.9999999999999953
  endloop
endfacet
facet normal 0.0 -1.1102230246251563e-16 -1.0
  outer loop
    vertex 9.900000000000016 1.4000000000000037 1.9999999999999953
    vertex 57.900000000000084 2.9000000000000012 1.9999999999999953
    vertex 57.900000000000084 1.4000000000000037 1.9999999999999953
  endloop
endfacet
facet normal -1.0 0.0 0.0
  outer loop
    vertex 9.900000000000016 2.9000000000000012 27.5
    vertex 9.900000000000016 1.4000000000000037 1.9999999999999953
    vertex 9.900000000000016 1.4000000000000037 27.5
  endloop
endfacet
facet normal -1.0 0.0 0.0
  outer loop
    vertex 9.900000000000016 1.4000000000000037 1.9999999999999953
    vertex 9.900000000000016 2.9000000000000012 27.5
    vertex 9.900000000000016 2.9000000000000012 1.9999999999999953
  endloop
endfacet
facet normal 2.0286252455850916e-32 1.0071308866242491e-16 1.0
  outer loop
    vertex 40.50000000000005 1.400000000000001 8.499999999999998
    vertex 25.500000000000078 2.900000000000004 8.499999999999998
    vertex 25.500000000000078 1.4000000000000037 8.499999999999998
  endloop
endfacet
facet normal 2.0286252455850916e-32 1.0071308866242491e-16 1.0
  outer loop
    vertex 25.500000000000078 2.900000000000004 8.499999999999998
    vertex 40.50000000000005 1.400000000000001 8.499999999999998
    vertex 40.50000000000005 2.9000000000000012 8.499999999999998
  endloop
endfacet
endsolid Bowl_Leds
