solid Bowl_Leds
facet normal -1.0 1.5106963299363733e-16 -3.0429378683776375e-32
  outer loop
    vertex 40.50000000000005 89.19999999999997 13.500000000000004
    vertex 40.50000000000005 87.69999999999997 5.499999999999998
    vertex 40.50000000000005 87.69999999999997 13.500000000000004
  endloop
endfacet
facet normal -1.0 1.5106963299363733e-16 -3.0429378683776375e-32
  outer loop
    vertex 40.50000000000005 87.69999999999997 5.499999999999998
    vertex 40.50000000000005 89.19999999999997 13.500000000000004
    vertex 40.50000000000005 89.19999999999997 5.499999999999998
  endloop
endfacet
facet normal -1.0143126227925458e-32 -1.0071308866242491e-16 -1.0
  outer loop
    vertex 40.50000000000005 89.19999999999997 13.500000000000004
    vertex 25.500000000000078 87.69999999999997 13.500000000000004
    vertex 25.500000000000078 89.19999999999997 13.500000000000004
  endloop
endfacet
facet normal -1.0143126227925458e-32 -1.0071308866242491e-16 -1.0
  outer loop
    vertex 25.500000000000078 87.69999999999997 13.500000000000004
    vertex 40.50000000000005 89.19999999999997 13.500000000000004
    vertex 40.50000000000005 87.69999999999997 13.500000000000004
  endloop
endfacet
facet normal 1.0 0.0 0.0
  outer loop
    vertex 57.900000000000084 89.19999999999997 1.999999999999995
    vertex 57.900000000000084 87.69999999999997 27.5
    vertex 57.900000000000084 87.69999999999997 1.999999999999995
  endloop
endfacet
facet normal 1.0 0.0 0.0
  outer loop
    vertex 57.900000000000084 87.69999999999997 27.5
    vertex 57.900000000000084 89.19999999999997 1.999999999999995
    vertex 57.900000000000084 89.19999999999997 27.5
  endloop
endfacet
facet normal 0.0 -1.0 0.0
  outer loop
    vertex 57.900000000000084 87.69999999999997 1.999999999999995
    vertex 40.50000000000005 87.69999999999997 5.499999999999998
    vertex 9.900000000000016 87.69999999999997 1.999999999999995
  endloop
endfacet
facet normal 0.0 -1.0 0.0
  outer loop
    vertex 40.50000000000005 87.69999999999997 5.499999999999998
    vertex 57.900000000000084 87.69999999999997 1.999999999999995
    vertex 48.98722036298352 87.69999999999997 8.08133290801039
  endloop
endfacet
facet normal 0.0 -1.0 0.0
  outer loop
    vertex 48.98722036298352 87.69999999999997 8.08133290801039
    vertex 57.900000000000084 87.69999999999997 1.999999999999995
    vertex 49.33779679376684 87.69999999999997 8.255774726042713
  endloop
endfacet
facet normal 0.0 -1.0 0.0
  outer loop
    vertex 49.33779679376684 87.69999999999997 8.255774726042713
    vertex 57.900000000000084 87.69999999999997 1.999999999999995
    vertex 49.631278757579615 87.69999999999997 8.515008440315741
  endloop
endfacet
facet normal 0.0 -1.0 0.0
  outer loop
    vertex 49.631278757579615 87.69999999999997 8.515008440315741
    vertex 57.900000000000084 87.69999999999997 1.999999999999995
    vertex 49.84766594358988 87.69999999999997 8.841367701605733
  endloop
endfacet
facet normal 0.0 -1.0 0.0
  outer loop
    vertex 49.84766594358988 87.69999999999997 8.841367701605733
    vertex 57.900000000000084 87.69999999999997 1.999999999999995
    vertex 57.900000000000084 87.69999999999997 27.5
  endloop
endfacet
facet normal 0.0 -1.0 0.0
  outer loop
    vertex 40.50000000000005 87.69999999999997 5.499999999999998
    vertex 48.98722036298352 87.69999999999997 8.08133290801039
    vertex 48.6034406696326 87.69999999999997 8.00357090783894
  endloop
endfacet
facet normal 0.0 -1.0 0.0
  outer loop
    vertex 49.84766594358988 87.69999999999997 8.841367701605733
    vertex 57.900000000000084 87.69999999999997 27.5
    vertex 49.97221192266778 87.69999999999997 9.21261166558996
  endloop
endfacet
facet normal 0.0 -1.0 0.0
  outer loop
    vertex 49.97221192266778 87.69999999999997 9.21261166558996
    vertex 57.900000000000084 87.69999999999997 27.5
    vertex 49.9964290921611 87.69999999999997 9.60344066963255
  endloop
endfacet
facet normal 0.0 -1.0 0.0
  outer loop
    vertex 49.9964290921611 87.69999999999997 9.60344066963255
    vertex 57.900000000000084 87.69999999999997 27.5
    vertex 49.918667091989654 87.69999999999997 9.987220362983473
  endloop
endfacet
facet normal 0.0 -1.0 0.0
  outer loop
    vertex 49.918667091989654 87.69999999999997 9.987220362983473
    vertex 57.900000000000084 87.69999999999997 27.5
    vertex 49.74422527395733 87.69999999999997 10.337796793766792
  endloop
endfacet
facet normal 0.0 -1.0 0.0
  outer loop
    vertex 49.74422527395733 87.69999999999997 10.337796793766792
    vertex 57.900000000000084 87.69999999999997 27.5
    vertex 49.4849915596843 87.69999999999997 10.631278757579565
  endloop
endfacet
facet normal 0.0 -1.0 0.0
  outer loop
    vertex 49.4849915596843 87.69999999999997 10.631278757579565
    vertex 57.900000000000084 87.69999999999997 27.5
    vertex 49.15863229839431 87.69999999999997 10.847665943589837
  endloop
endfacet
facet normal 0.0 -1.0 0.0
  outer loop
    vertex 49.15863229839431 87.69999999999997 10.847665943589837
    vertex 57.900000000000084 87.69999999999997 27.5
    vertex 48.78738833441009 87.69999999999997 10.97221192266773
  endloop
endfacet
facet normal 0.0 -1.0 0.0
  outer loop
    vertex 48.78738833441009 87.69999999999997 10.97221192266773
    vertex 57.900000000000084 87.69999999999997 27.5
    vertex 48.396559330367495 87.69999999999997 10.996429092161057
  endloop
endfacet
facet normal 0.0 -1.0 0.0
  outer loop
    vertex 48.396559330367495 87.69999999999997 10.996429092161057
    vertex 57.900000000000084 87.69999999999997 27.5
    vertex 40.50000000000005 87.69999999999997 13.500000000000004
  endloop
endfacet
facet normal 0.0 -1.0 0.0
  outer loop
    vertex 40.50000000000005 87.69999999999997 13.500000000000004
    vertex 57.900000000000084 87.69999999999997 27.5
    vertex 25.500000000000078 87.69999999999997 13.500000000000004
  endloop
endfacet
facet normal 0.0 -1.0 0.0
  outer loop
    vertex 9.900000000000016 87.69999999999997 1.999999999999995
    vertex 25.500000000000078 87.69999999999997 5.499999999999998
    vertex 9.900000000000016 87.69999999999997 27.5
  endloop
endfacet
facet normal 0.0 -1.0 0.0
  outer loop
    vertex 25.500000000000078 87.69999999999997 5.499999999999998
    vertex 9.900000000000016 87.69999999999997 1.999999999999995
    vertex 40.50000000000005 87.69999999999997 5.499999999999998
  endloop
endfacet
facet normal 0.0 -1.0 0.0
  outer loop
    vertex 9.900000000000016 87.69999999999997 27.5
    vertex 25.500000000000078 87.69999999999997 5.499999999999998
    vertex 25.500000000000078 87.69999999999997 13.500000000000004
  endloop
endfacet
facet normal 0.0 -1.0 0.0
  outer loop
    vertex 9.900000000000016 87.69999999999997 27.5
    vertex 25.500000000000078 87.69999999999997 13.500000000000004
    vertex 57.900000000000084 87.69999999999997 27.5
  endloop
endfacet
facet normal 0.0 -1.0 0.0
  outer loop
    vertex 40.50000000000005 87.69999999999997 5.499999999999998
    vertex 47.51500844031579 87.69999999999997 8.36872124242043
    vertex 40.50000000000005 87.69999999999997 13.500000000000004
  endloop
endfacet
facet normal 0.0 -1.0 0.0
  outer loop
    vertex 47.51500844031579 87.69999999999997 8.36872124242043
    vertex 40.50000000000005 87.69999999999997 5.499999999999998
    vertex 47.84136770160578 87.69999999999997 8.152334056410162
  endloop
endfacet
facet normal 0.0 -1.0 0.0
  outer loop
    vertex 47.84136770160578 87.69999999999997 8.152334056410162
    vertex 40.50000000000005 87.69999999999997 5.499999999999998
    vertex 48.21261166559 87.69999999999997 8.027788077332264
  endloop
endfacet
facet normal 0.0 -1.0 0.0
  outer loop
    vertex 48.21261166559 87.69999999999997 8.027788077332264
    vertex 40.50000000000005 87.69999999999997 5.499999999999998
    vertex 48.6034406696326 87.69999999999997 8.00357090783894
  endloop
endfacet
facet normal 0.0 -1.0 0.0
  outer loop
    vertex 40.50000000000005 87.69999999999997 13.500000000000004
    vertex 47.51500844031579 87.69999999999997 8.36872124242043
    vertex 47.25577472604276 87.69999999999997 8.662203206233205
  endloop
endfacet
facet normal 0.0 -1.0 0.0
  outer loop
    vertex 40.50000000000005 87.69999999999997 13.500000000000004
    vertex 47.25577472604276 87.69999999999997 8.662203206233205
    vertex 47.08133290801044 87.69999999999997 9.012779637016523
  endloop
endfacet
facet normal 0.0 -1.0 0.0
  outer loop
    vertex 40.50000000000005 87.69999999999997 13.500000000000004
    vertex 47.08133290801044 87.69999999999997 9.012779637016523
    vertex 47.003570907838984 87.69999999999997 9.396559330367445
  endloop
endfacet
facet normal 0.0 -1.0 0.0
  outer loop
    vertex 40.50000000000005 87.69999999999997 13.500000000000004
    vertex 47.003570907838984 87.69999999999997 9.396559330367445
    vertex 47.02778807733231 87.69999999999997 9.787388334410037
  endloop
endfacet
facet normal 0.0 -1.0 0.0
  outer loop
    vertex 40.50000000000005 87.69999999999997 13.500000000000004
    vertex 47.02778807733231 87.69999999999997 9.787388334410037
    vertex 47.15233405641021 87.69999999999997 10.158632298394263
  endloop
endfacet
facet normal 0.0 -1.0 0.0
  outer loop
    vertex 40.50000000000005 87.69999999999997 13.500000000000004
    vertex 47.15233405641021 87.69999999999997 10.158632298394263
    vertex 47.36872124242048 87.69999999999997 10.484991559684255
  endloop
endfacet
facet normal 0.0 -1.0 0.0
  outer loop
    vertex 40.50000000000005 87.69999999999997 13.500000000000004
    vertex 47.36872124242048 87.69999999999997 10.484991559684255
    vertex 47.66220320623325 87.69999999999997 10.744225273957285
  endloop
endfacet
facet normal 0.0 -1.0 0.0
  outer loop
    vertex 40.50000000000005 87.69999999999997 13.500000000000004
    vertex 47.66220320623325 87.69999999999997 10.744225273957285
    vertex 48.01277963701657 87.69999999999997 10.918667091989608
  endloop
endfacet
facet normal 0.0 -1.0 0.0
  outer loop
    vertex 40.50000000000005 87.69999999999997 13.500000000000004
    vertex 48.01277963701657 87.69999999999997 10.918667091989608
    vertex 48.396559330367495 87.69999999999997 10.996429092161057
  endloop
endfacet
facet normal 0.0 1.0 0.0
  outer loop
    vertex 40.50000000000005 89.19999999999997 5.499999999999998
    vertex 48.21261166559 89.19999999999997 8.027788077332264
    vertex 48.6034406696326 89.19999999999997 8.00357090783894
  endloop
endfacet
facet normal 0.0 1.0 0.0
  outer loop
    vertex 48.21261166559 89.19999999999997 8.027788077332264
    vertex 40.50000000000005 89.19999999999997 5.499999999999998
    vertex 47.84136770160578 89.19999999999997 8.152334056410162
  endloop
endfacet
facet normal 0.0 1.0 0.0
  outer loop
    vertex 47.84136770160578 89.19999999999997 8.152334056410162
    vertex 40.50000000000005 89.19999999999997 5.499999999999998
    vertex 47.51500844031579 89.19999999999997 8.36872124242043
  endloop
endfacet
facet normal 0.0 1.0 0.0
  outer loop
    vertex 47.51500844031579 89.19999999999997 8.36872124242043
    vertex 40.50000000000005 89.19999999999997 5.499999999999998
    vertex 40.50000000000005 89.19999999999997 13.500000000000004
  endloop
endfacet
facet normal 0.0 1.0 0.0
  outer loop
    vertex 47.51500844031579 89.19999999999997 8.36872124242043
    vertex 40.50000000000005 89.19999999999997 13.500000000000004
    vertex 47.25577472604276 89.19999999999997 8.662203206233205
  endloop
endfacet
facet normal 0.0 1.0 0.0
  outer loop
    vertex 47.25577472604276 89.19999999999997 8.662203206233205
    vertex 40.50000000000005 89.19999999999997 13.500000000000004
    vertex 47.08133290801044 89.19999999999997 9.012779637016523
  endloop
endfacet
facet normal 0.0 1.0 0.0
  outer loop
    vertex 47.08133290801044 89.19999999999997 9.012779637016523
    vertex 40.50000000000005 89.19999999999997 13.500000000000004
    vertex 47.003570907838984 89.19999999999997 9.396559330367445
  endloop
endfacet
facet normal 0.0 1.0 0.0
  outer loop
    vertex 47.003570907838984 89.19999999999997 9.396559330367445
    vertex 40.50000000000005 89.19999999999997 13.500000000000004
    vertex 47.02778807733231 89.19999999999997 9.787388334410037
  endloop
endfacet
facet normal 0.0 1.0 0.0
  outer loop
    vertex 47.02778807733231 89.19999999999997 9.787388334410037
    vertex 40.50000000000005 89.19999999999997 13.500000000000004
    vertex 47.15233405641021 89.19999999999997 10.158632298394263
  endloop
endfacet
facet normal 0.0 1.0 0.0
  outer loop
    vertex 47.15233405641021 89.19999999999997 10.158632298394263
    vertex 40.50000000000005 89.19999999999997 13.500000000000004
    vertex 47.36872124242048 89.19999999999997 10.484991559684255
  endloop
endfacet
facet normal 0.0 1.0 0.0
  outer loop
    vertex 47.36872124242048 89.19999999999997 10.484991559684255
    vertex 40.50000000000005 89.19999999999997 13.500000000000004
    vertex 47.66220320623325 89.19999999999997 10.744225273957285
  endloop
endfacet
facet normal 0.0 1.0 0.0
  outer loop
    vertex 47.66220320623325 89.19999999999997 10.744225273957285
    vertex 40.50000000000005 89.19999999999997 13.500000000000004
    vertex 48.01277963701657 89.19999999999997 10.918667091989608
  endloop
endfacet
facet normal 0.0 1.0 0.0
  outer loop
    vertex 48.01277963701657 89.19999999999997 10.918667091989608
    vertex 40.50000000000005 89.19999999999997 13.500000000000004
    vertex 48.396559330367495 89.19999999999997 10.996429092161057
  endloop
endfacet
facet normal 0.0 1.0 0.0
  outer loop
    vertex 9.900000000000016 89.19999999999997 1.999999999999995
    vertex 25.500000000000078 89.19999999999997 5.499999999999998
    vertex 57.900000000000084 89.19999999999997 1.999999999999995
  endloop
endfacet
facet normal 0.0 1.0 0.0
  outer loop
    vertex 25.500000000000078 89.19999999999997 5.499999999999998
    vertex 9.900000000000016 89.19999999999997 1.999999999999995
    vertex 9.900000000000016 89.19999999999997 27.5
  endloop
endfacet
facet normal 0.0 1.0 0.0
  outer loop
    vertex 25.500000000000078 89.19999999999997 5.499999999999998
    vertex 9.900000000000016 89.19999999999997 27.5
    vertex 25.500000000000078 89.19999999999997 13.500000000000004
  endloop
endfacet
facet normal 0.0 1.0 0.0
  outer loop
    vertex 25.500000000000078 89.19999999999997 13.500000000000004
    vertex 9.900000000000016 89.19999999999997 27.5
    vertex 40.50000000000005 89.19999999999997 13.500000000000004
  endloop
endfacet
facet normal 0.0 1.0 0.0
  outer loop
    vertex 57.900000000000084 89.19999999999997 1.999999999999995
    vertex 49.84766594358988 89.19999999999997 8.841367701605733
    vertex 57.900000000000084 89.19999999999997 27.5
  endloop
endfacet
facet normal 0.0 1.0 0.0
  outer loop
    vertex 49.84766594358988 89.19999999999997 8.841367701605733
    vertex 57.900000000000084 89.19999999999997 1.999999999999995
    vertex 49.631278757579615 89.19999999999997 8.515008440315741
  endloop
endfacet
facet normal 0.0 1.0 0.0
  outer loop
    vertex 49.631278757579615 89.19999999999997 8.515008440315741
    vertex 57.900000000000084 89.19999999999997 1.999999999999995
    vertex 49.33779679376684 89.19999999999997 8.255774726042713
  endloop
endfacet
facet normal 0.0 1.0 0.0
  outer loop
    vertex 49.33779679376684 89.19999999999997 8.255774726042713
    vertex 57.900000000000084 89.19999999999997 1.999999999999995
    vertex 48.98722036298352 89.19999999999997 8.08133290801039
  endloop
endfacet
facet normal 0.0 1.0 0.0
  outer loop
    vertex 48.98722036298352 89.19999999999997 8.08133290801039
    vertex 57.900000000000084 89.19999999999997 1.999999999999995
    vertex 40.50000000000005 89.19999999999997 5.499999999999998
  endloop
endfacet
facet normal 0.0 1.0 0.0
  outer loop
    vertex 40.50000000000005 89.19999999999997 5.499999999999998
    vertex 57.900000000000084 89.19999999999997 1.999999999999995
    vertex 25.500000000000078 89.19999999999997 5.499999999999998
  endloop
endfacet
facet normal 0.0 1.0 0.0
  outer loop
    vertex 48.98722036298352 89.19999999999997 8.08133290801039
    vertex 40.50000000000005 89.19999999999997 5.499999999999998
    vertex 48.6034406696326 89.19999999999997 8.00357090783894
  endloop
endfacet
facet normal 0.0 1.0 0.0
  outer loop
    vertex 57.900000000000084 89.19999999999997 27.5
    vertex 49.84766594358988 89.19999999999997 8.841367701605733
    vertex 49.97221192266778 89.19999999999997 9.21261166558996
  endloop
endfacet
facet normal 0.0 1.0 0.0
  outer loop
    vertex 57.900000000000084 89.19999999999997 27.5
    vertex 49.97221192266778 89.19999999999997 9.21261166558996
    vertex 49.9964290921611 89.19999999999997 9.60344066963255
  endloop
endfacet
facet normal 0.0 1.0 0.0
  outer loop
    vertex 57.900000000000084 89.19999999999997 27.5
    vertex 49.9964290921611 89.19999999999997 9.60344066963255
    vertex 49.918667091989654 89.19999999999997 9.987220362983473
  endloop
endfacet
facet normal 0.0 1.0 0.0
  outer loop
    vertex 57.900000000000084 89.19999999999997 27.5
    vertex 49.918667091989654 89.19999999999997 9.987220362983473
    vertex 49.74422527395733 89.19999999999997 10.337796793766792
  endloop
endfacet
facet normal 0.0 1.0 0.0
  outer loop
    vertex 57.900000000000084 89.19999999999997 27.5
    vertex 49.74422527395733 89.19999999999997 10.337796793766792
    vertex 49.4849915596843 89.19999999999997 10.631278757579565
  endloop
endfacet
facet normal 0.0 1.0 0.0
  outer loop
    vertex 57.900000000000084 89.19999999999997 27.5
    vertex 49.4849915596843 89.19999999999997 10.631278757579565
    vertex 49.15863229839431 89.19999999999997 10.847665943589837
  endloop
endfacet
facet normal 0.0 1.0 0.0
  outer loop
    vertex 57.900000000000084 89.19999999999997 27.5
    vertex 49.15863229839431 89.19999999999997 10.847665943589837
    vertex 48.78738833441009 89.19999999999997 10.97221192266773
  endloop
endfacet
facet normal 0.0 1.0 0.0
  outer loop
    vertex 57.900000000000084 89.19999999999997 27.5
    vertex 48.78738833441009 89.19999999999997 10.97221192266773
    vertex 48.396559330367495 89.19999999999997 10.996429092161057
  endloop
endfacet
facet normal 0.0 1.0 0.0
  outer loop
    vertex 57.900000000000084 89.19999999999997 27.5
    vertex 48.396559330367495 89.19999999999997 10.996429092161057
    vertex 40.50000000000005 89.19999999999997 13.500000000000004
  endloop
endfacet
facet normal 0.0 1.0 0.0
  outer loop
    vertex 57.900000000000084 89.19999999999997 27.5
    vertex 40.50000000000005 89.19999999999997 13.500000000000004
    vertex 9.900000000000016 89.19999999999997 27.5
  endloop
endfacet
facet normal 1.0 -1.5106963299363733e-16 0.0
  outer loop
    vertex 25.500000000000078 89.19999999999997 5.499999999999998
    vertex 25.500000000000078 87.69999999999997 13.500000000000004
    vertex 25.500000000000078 87.69999999999997 5.499999999999998
  endloop
endfacet
facet normal 1.0 -1.5106963299363733e-16 0.0
  outer loop
    vertex 25.500000000000078 87.69999999999997 13.500000000000004
    vertex 25.500000000000078 89.19999999999997 5.499999999999998
    vertex 25.500000000000078 89.19999999999997 13.500000000000004
  endloop
endfacet
facet normal 0.0 1.1102230246251563e-16 1.0
  outer loop
    vertex 57.900000000000084 87.69999999999997 27.5
    vertex 9.900000000000016 89.19999999999997 27.5
    vertex 9.900000000000016 87.69999999999997 27.5
  endloop
endfacet
facet normal 0.0 1.1102230246251563e-16 1.0
  outer loop
    vertex 9.900000000000016 89.19999999999997 27.5
    vertex 57.900000000000084 87.69999999999997 27.5
    vertex 57.900000000000084 89.19999999999997 27.5
  endloop
endfacet
facet normal 0.0 -1.1102230246251563e-16 -1.0
  outer loop
    vertex 57.900000000000084 89.19999999999997 1.999999999999995
    vertex 9.900000000000016 87.69999999999997 1.999999999999995
    vertex 9.900000000000016 89.19999999999997 1.999999999999995
  endloop
endfacet
facet normal 0.0 -1.1102230246251563e-16 -1.0
  outer loop
    vertex 9.900000000000016 87.69999999999997 1.999999999999995
    vertex 57.900000000000084 89.19999999999997 1.999999999999995
    vertex 57.900000000000084 87.69999999999997 1.999999999999995
  endloop
endfacet
facet normal -1.0 0.0 0.0
  outer loop
    vertex 9.900000000000016 89.19999999999997 27.5
    vertex 9.900000000000016 87.69999999999997 1.999999999999995
    vertex 9.900000000000016 87.69999999999997 27.5
  endloop
endfacet
facet normal -1.0 0.0 0.0
  outer loop
    vertex 9.900000000000016 87.69999999999997 1.999999999999995
    vertex 9.900000000000016 89.19999999999997 27.5
    vertex 9.900000000000016 89.19999999999997 1.999999999999995
  endloop
endfacet
facet normal 2.0286252455850916e-32 1.0071308866242491e-16 1.0
  outer loop
    vertex 40.50000000000005 87.69999999999997 5.499999999999998
    vertex 25.500000000000078 89.19999999999997 5.499999999999998
    vertex 25.500000000000078 87.69999999999997 5.499999999999998
  endloop
endfacet
facet normal 2.0286252455850916e-32 1.0071308866242491e-16 1.0
  outer loop
    vertex 25.500000000000078 89.19999999999997 5.499999999999998
    vertex 40.50000000000005 87.69999999999997 5.499999999999998
    vertex 40.50000000000005 89.19999999999997 5.499999999999998
  endloop
endfacet
facet normal 0.662022208886094 -1.0595656222010485e-29 -0.7494842192745468
  outer loop
    vertex 47.66220320623325 89.19999999999997 10.744225273957285
    vertex 47.36872124242048 87.69999999999997 10.484991559684255
    vertex 47.36872124242048 89.19999999999997 10.484991559684255
  endloop
endfacet
facet normal 0.662022208886094 -1.0595656222010485e-29 -0.7494842192745468
  outer loop
    vertex 47.36872124242048 87.69999999999997 10.484991559684255
    vertex 47.66220320623325 89.19999999999997 10.744225273957285
    vertex 47.66220320623325 87.69999999999997 10.744225273957285
  endloop
endfacet
facet normal 0.44548355918796206 1.222308223680401e-31 -0.8952901197339472
  outer loop
    vertex 48.01277963701657 89.19999999999997 10.918667091989608
    vertex 47.66220320623325 87.69999999999997 10.744225273957285
    vertex 47.66220320623325 89.19999999999997 10.744225273957285
  endloop
endfacet
facet normal 0.44548355918796206 1.222308223680401e-31 -0.8952901197339472
  outer loop
    vertex 47.66220320623325 87.69999999999997 10.744225273957285
    vertex 48.01277963701657 89.19999999999997 10.918667091989608
    vertex 48.01277963701657 87.69999999999997 10.918667091989608
  endloop
endfacet
facet normal 0.1985859411275652 1.5434184815813732e-18 -0.9800834780703527
  outer loop
    vertex 48.396559330367495 89.19999999999997 10.996429092161057
    vertex 48.01277963701657 87.69999999999997 10.918667091989608
    vertex 48.01277963701657 89.19999999999997 10.918667091989608
  endloop
endfacet
facet normal 0.1985859411275652 1.5434184815813732e-18 -0.9800834780703527
  outer loop
    vertex 48.01277963701657 87.69999999999997 10.918667091989608
    vertex 48.396559330367495 89.19999999999997 10.996429092161057
    vertex 48.396559330367495 87.69999999999997 10.996429092161057
  endloop
endfacet
facet normal -0.06184498064189118 0.0 -0.9980857670407911
  outer loop
    vertex 48.78738833441009 89.19999999999997 10.97221192266773
    vertex 48.396559330367495 87.69999999999997 10.996429092161057
    vertex 48.396559330367495 89.19999999999997 10.996429092161057
  endloop
endfacet
facet normal -0.06184498064189118 0.0 -0.9980857670407911
  outer loop
    vertex 48.396559330367495 87.69999999999997 10.996429092161057
    vertex 48.78738833441009 89.19999999999997 10.97221192266773
    vertex 48.78738833441009 87.69999999999997 10.97221192266773
  endloop
endfacet
facet normal -0.3180612691842585 3.1389182523401927e-29 -0.9480701604021184
  outer loop
    vertex 49.15863229839431 89.19999999999997 10.847665943589837
    vertex 48.78738833441009 87.69999999999997 10.97221192266773
    vertex 48.78738833441009 89.19999999999997 10.97221192266773
  endloop
endfacet
facet normal -0.3180612691842585 3.1389182523401927e-29 -0.9480701604021184
  outer loop
    vertex 48.78738833441009 87.69999999999997 10.97221192266773
    vertex 49.15863229839431 89.19999999999997 10.847665943589837
    vertex 49.15863229839431 87.69999999999997 10.847665943589837
  endloop
endfacet
facet normal -0.5526022078528314 6.477571492497412e-18 -0.8334451390920559
  outer loop
    vertex 49.4849915596843 89.19999999999997 10.631278757579565
    vertex 49.15863229839431 87.69999999999997 10.847665943589837
    vertex 49.15863229839431 89.19999999999997 10.847665943589837
  endloop
endfacet
facet normal -0.5526022078528314 6.477571492497412e-18 -0.8334451390920559
  outer loop
    vertex 49.15863229839431 87.69999999999997 10.847665943589837
    vertex 49.4849915596843 89.19999999999997 10.631278757579565
    vertex 49.4849915596843 87.69999999999997 10.631278757579565
  endloop
endfacet
facet normal -0.749484219274545 8.476524977608368e-29 -0.662022208886096
  outer loop
    vertex 49.4849915596843 89.19999999999997 10.631278757579565
    vertex 49.74422527395733 87.69999999999997 10.337796793766792
    vertex 49.4849915596843 87.69999999999997 10.631278757579565
  endloop
endfacet
facet normal -0.749484219274545 8.476524977608368e-29 -0.662022208886096
  outer loop
    vertex 49.74422527395733 87.69999999999997 10.337796793766792
    vertex 49.4849915596843 89.19999999999997 10.631278757579565
    vertex 49.74422527395733 89.19999999999997 10.337796793766792
  endloop
endfacet
facet normal -0.8952901197339487 0.0 -0.4454835591879591
  outer loop
    vertex 49.74422527395733 89.19999999999997 10.337796793766792
    vertex 49.918667091989654 87.69999999999997 9.987220362983473
    vertex 49.74422527395733 87.69999999999997 10.337796793766792
  endloop
endfacet
facet normal -0.8952901197339487 0.0 -0.4454835591879591
  outer loop
    vertex 49.918667091989654 87.69999999999997 9.987220362983473
    vertex 49.74422527395733 89.19999999999997 10.337796793766792
    vertex 49.918667091989654 89.19999999999997 9.987220362983473
  endloop
endfacet
facet normal -0.9800834780703547 1.1084559045213776e-28 -0.19858594112755473
  outer loop
    vertex 49.918667091989654 89.19999999999997 9.987220362983473
    vertex 49.9964290921611 87.69999999999997 9.60344066963255
    vertex 49.918667091989654 87.69999999999997 9.987220362983473
  endloop
endfacet
facet normal -0.9800834780703547 1.1084559045213776e-28 -0.19858594112755473
  outer loop
    vertex 49.9964290921611 87.69999999999997 9.60344066963255
    vertex 49.918667091989654 89.19999999999997 9.987220362983473
    vertex 49.9964290921611 89.19999999999997 9.60344066963255
  endloop
endfacet
facet normal -0.9980857670407924 -5.644080766841052e-29 0.061844980641869655
  outer loop
    vertex 49.9964290921611 89.19999999999997 9.60344066963255
    vertex 49.97221192266778 87.69999999999997 9.21261166558996
    vertex 49.9964290921611 87.69999999999997 9.60344066963255
  endloop
endfacet
facet normal -0.9980857670407924 -5.644080766841052e-29 0.061844980641869655
  outer loop
    vertex 49.97221192266778 87.69999999999997 9.21261166558996
    vertex 49.9964290921611 89.19999999999997 9.60344066963255
    vertex 49.97221192266778 89.19999999999997 9.21261166558996
  endloop
endfacet
facet normal -0.9480701604021157 2.4719858734553054e-18 0.318061269184267
  outer loop
    vertex 49.97221192266778 89.19999999999997 9.21261166558996
    vertex 49.84766594358988 87.69999999999997 8.841367701605733
    vertex 49.97221192266778 87.69999999999997 9.21261166558996
  endloop
endfacet
facet normal -0.9480701604021157 2.4719858734553054e-18 0.318061269184267
  outer loop
    vertex 49.84766594358988 87.69999999999997 8.841367701605733
    vertex 49.97221192266778 89.19999999999997 9.21261166558996
    vertex 49.84766594358988 89.19999999999997 8.841367701605733
  endloop
endfacet
facet normal -0.8334451390920586 -4.294848143427996e-18 0.5526022078528273
  outer loop
    vertex 49.84766594358988 89.19999999999997 8.841367701605733
    vertex 49.631278757579615 87.69999999999997 8.515008440315741
    vertex 49.84766594358988 87.69999999999997 8.841367701605733
  endloop
endfacet
facet normal -0.8334451390920586 -4.294848143427996e-18 0.5526022078528273
  outer loop
    vertex 49.631278757579615 87.69999999999997 8.515008440315741
    vertex 49.84766594358988 89.19999999999997 8.841367701605733
    vertex 49.631278757579615 89.19999999999997 8.515008440315741
  endloop
endfacet
facet normal -0.662022208886092 0.0 0.7494842192745487
  outer loop
    vertex 49.631278757579615 87.69999999999997 8.515008440315741
    vertex 49.33779679376684 89.19999999999997 8.255774726042713
    vertex 49.33779679376684 87.69999999999997 8.255774726042713
  endloop
endfacet
facet normal -0.662022208886092 0.0 0.7494842192745487
  outer loop
    vertex 49.33779679376684 89.19999999999997 8.255774726042713
    vertex 49.631278757579615 87.69999999999997 8.515008440315741
    vertex 49.631278757579615 89.19999999999997 8.515008440315741
  endloop
endfacet
facet normal -0.4454835591879678 0.0 0.8952901197339443
  outer loop
    vertex 49.33779679376684 87.69999999999997 8.255774726042713
    vertex 48.98722036298352 89.19999999999997 8.08133290801039
    vertex 48.98722036298352 87.69999999999997 8.08133290801039
  endloop
endfacet
facet normal -0.4454835591879678 0.0 0.8952901197339443
  outer loop
    vertex 48.98722036298352 89.19999999999997 8.08133290801039
    vertex 49.33779679376684 87.69999999999997 8.255774726042713
    vertex 49.33779679376684 89.19999999999997 8.255774726042713
  endloop
endfacet
facet normal -0.19858594112756234 1.3855698806517203e-29 0.9800834780703531
  outer loop
    vertex 48.98722036298352 87.69999999999997 8.08133290801039
    vertex 48.6034406696326 89.19999999999997 8.00357090783894
    vertex 48.6034406696326 87.69999999999997 8.00357090783894
  endloop
endfacet
facet normal -0.19858594112756234 1.3855698806517203e-29 0.9800834780703531
  outer loop
    vertex 48.6034406696326 89.19999999999997 8.00357090783894
    vertex 48.98722036298352 87.69999999999997 8.08133290801039
    vertex 48.98722036298352 89.19999999999997 8.08133290801039
  endloop
endfacet
facet normal 0.061844980641884005 0.0 0.9980857670407915
  outer loop
    vertex 48.6034406696326 87.69999999999997 8.00357090783894
    vertex 48.21261166559 89.19999999999997 8.027788077332264
    vertex 48.21261166559 87.69999999999997 8.027788077332264
  endloop
endfacet
facet normal 0.061844980641884005 0.0 0.9980857670407915
  outer loop
    vertex 48.21261166559 89.19999999999997 8.027788077332264
    vertex 48.6034406696326 87.69999999999997 8.00357090783894
    vertex 48.6034406696326 89.19999999999997 8.00357090783894
  endloop
endfacet
facet normal 0.31806126918426497 3.138918252340227e-29 0.9480701604021164
  outer loop
    vertex 48.21261166559 87.69999999999997 8.027788077332264
    vertex 47.84136770160578 89.19999999999997 8.152334056410162
    vertex 47.84136770160578 87.69999999999997 8.152334056410162
  endloop
endfacet
facet normal 0.31806126918426497 3.138918252340227e-29 0.9480701604021164
  outer loop
    vertex 47.84136770160578 89.19999999999997 8.152334056410162
    vertex 48.21261166559 87.69999999999997 8.027788077332264
    vertex 48.21261166559 89.19999999999997 8.027788077332264
  endloop
endfacet
facet normal 0.5526022078528289 0.0 0.8334451390920575
  outer loop
    vertex 47.84136770160578 87.69999999999997 8.152334056410162
    vertex 47.51500844031579 89.19999999999997 8.36872124242043
    vertex 47.51500844031579 87.69999999999997 8.36872124242043
  endloop
endfacet
facet normal 0.5526022078528289 0.0 0.8334451390920575
  outer loop
    vertex 47.51500844031579 89.19999999999997 8.36872124242043
    vertex 47.84136770160578 87.69999999999997 8.152334056410162
    vertex 47.84136770160578 89.19999999999997 8.152334056410162
  endloop
endfacet
facet normal 0.749484219274545 8.476524977608368e-29 0.662022208886096
  outer loop
    vertex 47.51500844031579 89.19999999999997 8.36872124242043
    vertex 47.25577472604276 87.69999999999997 8.662203206233205
    vertex 47.51500844031579 87.69999999999997 8.36872124242043
  endloop
endfacet
facet normal 0.749484219274545 8.476524977608368e-29 0.662022208886096
  outer loop
    vertex 47.25577472604276 87.69999999999997 8.662203206233205
    vertex 47.51500844031579 89.19999999999997 8.36872124242043
    vertex 47.25577472604276 89.19999999999997 8.662203206233205
  endloop
endfacet
facet normal 0.8952901197339487 0.0 0.4454835591879591
  outer loop
    vertex 47.25577472604276 89.19999999999997 8.662203206233205
    vertex 47.08133290801044 87.69999999999997 9.012779637016523
    vertex 47.25577472604276 87.69999999999997 8.662203206233205
  endloop
endfacet
facet normal 0.8952901197339487 0.0 0.4454835591879591
  outer loop
    vertex 47.08133290801044 87.69999999999997 9.012779637016523
    vertex 47.25577472604276 89.19999999999997 8.662203206233205
    vertex 47.08133290801044 89.19999999999997 9.012779637016523
  endloop
endfacet
facet normal 0.9800834780703519 -1.9043127436463836e-18 0.19858594112756858
  outer loop
    vertex 47.08133290801044 89.19999999999997 9.012779637016523
    vertex 47.003570907838984 87.69999999999997 9.396559330367445
    vertex 47.08133290801044 87.69999999999997 9.012779637016523
  endloop
endfacet
facet normal 0.9800834780703519 -1.9043127436463836e-18 0.19858594112756858
  outer loop
    vertex 47.003570907838984 87.69999999999997 9.396559330367445
    vertex 47.08133290801044 89.19999999999997 9.012779637016523
    vertex 47.003570907838984 89.19999999999997 9.396559330367445
  endloop
endfacet
facet normal 0.9980857670407915 8.743188143074864e-31 -0.06184498064188379
  outer loop
    vertex 47.003570907838984 89.19999999999997 9.396559330367445
    vertex 47.02778807733231 87.69999999999997 9.787388334410037
    vertex 47.003570907838984 87.69999999999997 9.396559330367445
  endloop
endfacet
facet normal 0.9980857670407915 8.743188143074864e-31 -0.06184498064188379
  outer loop
    vertex 47.02778807733231 87.69999999999997 9.787388334410037
    vertex 47.003570907838984 89.19999999999997 9.396559330367445
    vertex 47.02778807733231 89.19999999999997 9.787388334410037
  endloop
endfacet
facet normal 0.9480701604021152 0.0 -0.3180612691842682
  outer loop
    vertex 47.02778807733231 89.19999999999997 9.787388334410037
    vertex 47.15233405641021 87.69999999999997 10.158632298394263
    vertex 47.02778807733231 87.69999999999997 9.787388334410037
  endloop
endfacet
facet normal 0.9480701604021152 0.0 -0.3180612691842682
  outer loop
    vertex 47.15233405641021 87.69999999999997 10.158632298394263
    vertex 47.02778807733231 89.19999999999997 9.787388334410037
    vertex 47.15233405641021 89.19999999999997 10.158632298394263
  endloop
endfacet
facet normal 0.8334451390920586 -4.294848143427996e-18 -0.5526022078528273
  outer loop
    vertex 47.15233405641021 89.19999999999997 10.158632298394263
    vertex 47.36872124242048 87.69999999999997 10.484991559684255
    vertex 47.15233405641021 87.69999999999997 10.158632298394263
  endloop
endfacet
facet normal 0.8334451390920586 -4.294848143427996e-18 -0.5526022078528273
  outer loop
    vertex 47.36872124242048 87.69999999999997 10.484991559684255
    vertex 47.15233405641021 89.19999999999997 10.158632298394263
    vertex 47.36872124242048 89.19999999999997 10.484991559684255
  endloop
endfacet
endsolid Bowl_Leds
