solid Bowl_Leds
facet normal -1.0 1.5106963299363733e-16 -3.0429378683776375e-32
  outer loop
    vertex 40.50000000000005 89.19999999999997 13.500000000000004
    vertex 40.50000000000005 87.69999999999997 5.499999999999998
    vertex 40.50000000000005 87.69999999999997 13.500000000000004
  endloop
endfacet
facet normal -1.0 1.5106963299363733e-16 -3.0429378683776375e-32
  outer loop
    vertex 40.50000000000005 87.69999999999997 5.499999999999998
    vertex 40.50000000000005 89.19999999999997 13.500000000000004
    vertex 40.50000000000005 89.19999999999997 5.499999999999998
  endloop
endfacet
facet normal -1.0143126227925458e-32 -1.0071308866242491e-16 -1.0
  outer loop
    vertex 40.50000000000005 89.19999999999997 13.500000000000004
    vertex 25.500000000000078 87.69999999999997 13.500000000000004
    vertex 25.500000000000078 89.19999999999997 13.500000000000004
  endloop
endfacet
facet normal -1.0143126227925458e-32 -1.0071308866242491e-16 -1.0
  outer loop
    vertex 25.500000000000078 87.69999999999997 13.500000000000004
    vertex 40.50000000000005 89.19999999999997 13.500000000000004
    vertex 40.50000000000005 87.69999999999997 13.500000000000004
  endloop
endfacet
facet normal 1.0 0.0 0.0
  outer loop
    vertex 58.900000000000084 89.19999999999997 1.999999999999995
    vertex 58.900000000000084 87.69999999999997 27.5
    vertex 58.900000000000084 87.69999999999997 1.999999999999995
  endloop
endfacet
facet normal 1.0 0.0 0.0
  outer loop
    vertex 58.900000000000084 87.69999999999997 27.5
    vertex 58.900000000000084 89.19999999999997 1.999999999999995
    vertex 58.900000000000084 89.19999999999997 27.5
  endloop
endfacet
facet normal 0.0 -1.0 0.0
  outer loop
    vertex 58.900000000000084 87.69999999999997 1.999999999999995
    vertex 40.50000000000005 87.69999999999997 5.499999999999998
    vertex 8.900000000000018 87.69999999999997 1.999999999999995
  endloop
endfacet
facet normal 0.0 -1.0 0.0
  outer loop
    vertex 40.50000000000005 87.69999999999997 5.499999999999998
    vertex 58.900000000000084 87.69999999999997 1.999999999999995
    vertex 48.824813575322366 87.69999999999997 8.554221938673592
  endloop
endfacet
facet normal 0.0 -1.0 0.0
  outer loop
    vertex 48.824813575322366 87.69999999999997 8.554221938673592
    vertex 58.900000000000084 87.69999999999997 1.999999999999995
    vertex 49.05853119584457 87.69999999999997 8.670516484028475
  endloop
endfacet
facet normal 0.0 -1.0 0.0
  outer loop
    vertex 49.05853119584457 87.69999999999997 8.670516484028475
    vertex 58.900000000000084 87.69999999999997 1.999999999999995
    vertex 49.25418583838643 87.69999999999997 8.843338960210493
  endloop
endfacet
facet normal 0.0 -1.0 0.0
  outer loop
    vertex 49.25418583838643 87.69999999999997 8.843338960210493
    vertex 58.900000000000084 87.69999999999997 1.999999999999995
    vertex 49.39844396239327 87.69999999999997 9.060911801070487
  endloop
endfacet
facet normal 0.0 -1.0 0.0
  outer loop
    vertex 49.39844396239327 87.69999999999997 9.060911801070487
    vertex 58.900000000000084 87.69999999999997 1.999999999999995
    vertex 58.900000000000084 87.69999999999997 27.5
  endloop
endfacet
facet normal 0.0 -1.0 0.0
  outer loop
    vertex 40.50000000000005 87.69999999999997 5.499999999999998
    vertex 48.824813575322366 87.69999999999997 8.554221938673592
    vertex 48.56896044642175 87.69999999999997 8.502380605225959
  endloop
endfacet
facet normal 0.0 -1.0 0.0
  outer loop
    vertex 49.39844396239327 87.69999999999997 9.060911801070487
    vertex 58.900000000000084 87.69999999999997 27.5
    vertex 49.48147461511187 87.69999999999997 9.308407777059971
  endloop
endfacet
facet normal 0.0 -1.0 0.0
  outer loop
    vertex 49.48147461511187 87.69999999999997 9.308407777059971
    vertex 58.900000000000084 87.69999999999997 27.5
    vertex 49.497619394774084 87.69999999999997 9.5689604464217
  endloop
endfacet
facet normal 0.0 -1.0 0.0
  outer loop
    vertex 49.497619394774084 87.69999999999997 9.5689604464217
    vertex 58.900000000000084 87.69999999999997 27.5
    vertex 49.44577806132645 87.69999999999997 9.824813575322315
  endloop
endfacet
facet normal 0.0 -1.0 0.0
  outer loop
    vertex 49.44577806132645 87.69999999999997 9.824813575322315
    vertex 58.900000000000084 87.69999999999997 27.5
    vertex 49.32948351597157 87.69999999999997 10.058531195844527
  endloop
endfacet
facet normal 0.0 -1.0 0.0
  outer loop
    vertex 49.32948351597157 87.69999999999997 10.058531195844527
    vertex 58.900000000000084 87.69999999999997 27.5
    vertex 49.156661039789554 87.69999999999997 10.254185838386377
  endloop
endfacet
facet normal 0.0 -1.0 0.0
  outer loop
    vertex 49.156661039789554 87.69999999999997 10.254185838386377
    vertex 58.900000000000084 87.69999999999997 27.5
    vertex 48.939088198929554 87.69999999999997 10.398443962393223
  endloop
endfacet
facet normal 0.0 -1.0 0.0
  outer loop
    vertex 48.939088198929554 87.69999999999997 10.398443962393223
    vertex 58.900000000000084 87.69999999999997 27.5
    vertex 48.69159222294007 87.69999999999997 10.48147461511182
  endloop
endfacet
facet normal 0.0 -1.0 0.0
  outer loop
    vertex 48.69159222294007 87.69999999999997 10.48147461511182
    vertex 58.900000000000084 87.69999999999997 27.5
    vertex 48.431039553578344 87.69999999999997 10.497619394774038
  endloop
endfacet
facet normal 0.0 -1.0 0.0
  outer loop
    vertex 48.431039553578344 87.69999999999997 10.497619394774038
    vertex 58.900000000000084 87.69999999999997 27.5
    vertex 40.50000000000005 87.69999999999997 13.500000000000004
  endloop
endfacet
facet normal 0.0 -1.0 0.0
  outer loop
    vertex 40.50000000000005 87.69999999999997 13.500000000000004
    vertex 58.900000000000084 87.69999999999997 27.5
    vertex 25.500000000000078 87.69999999999997 13.500000000000004
  endloop
endfacet
facet normal 0.0 -1.0 0.0
  outer loop
    vertex 8.900000000000018 87.69999999999997 1.999999999999995
    vertex 25.500000000000078 87.69999999999997 5.499999999999998
    vertex 8.900000000000018 87.69999999999997 27.5
  endloop
endfacet
facet normal 0.0 -1.0 0.0
  outer loop
    vertex 25.500000000000078 87.69999999999997 5.499999999999998
    vertex 8.900000000000018 87.69999999999997 1.999999999999995
    vertex 40.50000000000005 87.69999999999997 5.499999999999998
  endloop
endfacet
facet normal 0.0 -1.0 0.0
  outer loop
    vertex 8.900000000000018 87.69999999999997 27.5
    vertex 25.500000000000078 87.69999999999997 5.499999999999998
    vertex 25.500000000000078 87.69999999999997 13.500000000000004
  endloop
endfacet
facet normal 0.0 -1.0 0.0
  outer loop
    vertex 8.900000000000018 87.69999999999997 27.5
    vertex 25.500000000000078 87.69999999999997 13.500000000000004
    vertex 58.900000000000084 87.69999999999997 27.5
  endloop
endfacet
facet normal 0.0 -1.0 0.0
  outer loop
    vertex 40.50000000000005 87.69999999999997 5.499999999999998
    vertex 48.06091180107054 87.69999999999997 8.601556037606773
    vertex 40.50000000000005 87.69999999999997 13.500000000000004
  endloop
endfacet
facet normal 0.0 -1.0 0.0
  outer loop
    vertex 48.06091180107054 87.69999999999997 8.601556037606773
    vertex 40.50000000000005 87.69999999999997 5.499999999999998
    vertex 48.30840777706002 87.69999999999997 8.518525384888177
  endloop
endfacet
facet normal 0.0 -1.0 0.0
  outer loop
    vertex 48.30840777706002 87.69999999999997 8.518525384888177
    vertex 40.50000000000005 87.69999999999997 5.499999999999998
    vertex 48.56896044642175 87.69999999999997 8.502380605225959
  endloop
endfacet
facet normal 0.0 -1.0 0.0
  outer loop
    vertex 40.50000000000005 87.69999999999997 13.500000000000004
    vertex 48.06091180107054 87.69999999999997 8.601556037606773
    vertex 47.84333896021054 87.69999999999997 8.74581416161362
  endloop
endfacet
facet normal 0.0 -1.0 0.0
  outer loop
    vertex 40.50000000000005 87.69999999999997 13.500000000000004
    vertex 47.84333896021054 87.69999999999997 8.74581416161362
    vertex 47.670516484028525 87.69999999999997 8.94146880415547
  endloop
endfacet
facet normal 0.0 -1.0 0.0
  outer loop
    vertex 40.50000000000005 87.69999999999997 13.500000000000004
    vertex 47.670516484028525 87.69999999999997 8.94146880415547
    vertex 47.55422193867364 87.69999999999997 9.175186424677682
  endloop
endfacet
facet normal 0.0 -1.0 0.0
  outer loop
    vertex 40.50000000000005 87.69999999999997 13.500000000000004
    vertex 47.55422193867364 87.69999999999997 9.175186424677682
    vertex 47.50238060522601 87.69999999999997 9.431039553578296
  endloop
endfacet
facet normal 0.0 -1.0 0.0
  outer loop
    vertex 40.50000000000005 87.69999999999997 13.500000000000004
    vertex 47.50238060522601 87.69999999999997 9.431039553578296
    vertex 47.51852538488822 87.69999999999997 9.691592222940024
  endloop
endfacet
facet normal 0.0 -1.0 0.0
  outer loop
    vertex 40.50000000000005 87.69999999999997 13.500000000000004
    vertex 47.51852538488822 87.69999999999997 9.691592222940024
    vertex 47.60155603760682 87.69999999999997 9.939088198929507
  endloop
endfacet
facet normal 0.0 -1.0 0.0
  outer loop
    vertex 40.50000000000005 87.69999999999997 13.500000000000004
    vertex 47.60155603760682 87.69999999999997 9.939088198929507
    vertex 47.745814161613666 87.69999999999997 10.156661039789503
  endloop
endfacet
facet normal 0.0 -1.0 0.0
  outer loop
    vertex 40.50000000000005 87.69999999999997 13.500000000000004
    vertex 47.745814161613666 87.69999999999997 10.156661039789503
    vertex 47.94146880415552 87.69999999999997 10.329483515971521
  endloop
endfacet
facet normal 0.0 -1.0 0.0
  outer loop
    vertex 40.50000000000005 87.69999999999997 13.500000000000004
    vertex 47.94146880415552 87.69999999999997 10.329483515971521
    vertex 48.17518642467773 87.69999999999997 10.445778061326402
  endloop
endfacet
facet normal 0.0 -1.0 0.0
  outer loop
    vertex 40.50000000000005 87.69999999999997 13.500000000000004
    vertex 48.17518642467773 87.69999999999997 10.445778061326402
    vertex 48.431039553578344 87.69999999999997 10.497619394774038
  endloop
endfacet
facet normal 0.0 1.0 0.0
  outer loop
    vertex 40.50000000000005 89.19999999999997 5.499999999999998
    vertex 48.30840777706002 89.19999999999997 8.518525384888177
    vertex 48.56896044642175 89.19999999999997 8.502380605225959
  endloop
endfacet
facet normal 0.0 1.0 0.0
  outer loop
    vertex 48.30840777706002 89.19999999999997 8.518525384888177
    vertex 40.50000000000005 89.19999999999997 5.499999999999998
    vertex 48.06091180107054 89.19999999999997 8.601556037606773
  endloop
endfacet
facet normal 0.0 1.0 0.0
  outer loop
    vertex 48.06091180107054 89.19999999999997 8.601556037606773
    vertex 40.50000000000005 89.19999999999997 5.499999999999998
    vertex 40.50000000000005 89.19999999999997 13.500000000000004
  endloop
endfacet
facet normal 0.0 1.0 0.0
  outer loop
    vertex 48.06091180107054 89.19999999999997 8.601556037606773
    vertex 40.50000000000005 89.19999999999997 13.500000000000004
    vertex 47.84333896021054 89.19999999999997 8.74581416161362
  endloop
endfacet
facet normal 0.0 1.0 0.0
  outer loop
    vertex 47.84333896021054 89.19999999999997 8.74581416161362
    vertex 40.50000000000005 89.19999999999997 13.500000000000004
    vertex 47.670516484028525 89.19999999999997 8.94146880415547
  endloop
endfacet
facet normal 0.0 1.0 0.0
  outer loop
    vertex 47.670516484028525 89.19999999999997 8.94146880415547
    vertex 40.50000000000005 89.19999999999997 13.500000000000004
    vertex 47.55422193867364 89.19999999999997 9.175186424677682
  endloop
endfacet
facet normal 0.0 1.0 0.0
  outer loop
    vertex 47.55422193867364 89.19999999999997 9.175186424677682
    vertex 40.50000000000005 89.19999999999997 13.500000000000004
    vertex 47.50238060522601 89.19999999999997 9.431039553578296
  endloop
endfacet
facet normal 0.0 1.0 0.0
  outer loop
    vertex 47.50238060522601 89.19999999999997 9.431039553578296
    vertex 40.50000000000005 89.19999999999997 13.500000000000004
    vertex 47.51852538488822 89.19999999999997 9.691592222940024
  endloop
endfacet
facet normal 0.0 1.0 0.0
  outer loop
    vertex 47.51852538488822 89.19999999999997 9.691592222940024
    vertex 40.50000000000005 89.19999999999997 13.500000000000004
    vertex 47.60155603760682 89.19999999999997 9.939088198929507
  endloop
endfacet
facet normal 0.0 1.0 0.0
  outer loop
    vertex 47.60155603760682 89.19999999999997 9.939088198929507
    vertex 40.50000000000005 89.19999999999997 13.500000000000004
    vertex 47.745814161613666 89.19999999999997 10.156661039789503
  endloop
endfacet
facet normal 0.0 1.0 0.0
  outer loop
    vertex 47.745814161613666 89.19999999999997 10.156661039789503
    vertex 40.50000000000005 89.19999999999997 13.500000000000004
    vertex 47.94146880415552 89.19999999999997 10.329483515971521
  endloop
endfacet
facet normal 0.0 1.0 0.0
  outer loop
    vertex 47.94146880415552 89.19999999999997 10.329483515971521
    vertex 40.50000000000005 89.19999999999997 13.500000000000004
    vertex 48.17518642467773 89.19999999999997 10.445778061326402
  endloop
endfacet
facet normal 0.0 1.0 0.0
  outer loop
    vertex 48.17518642467773 89.19999999999997 10.445778061326402
    vertex 40.50000000000005 89.19999999999997 13.500000000000004
    vertex 48.431039553578344 89.19999999999997 10.497619394774038
  endloop
endfacet
facet normal 0.0 1.0 0.0
  outer loop
    vertex 8.900000000000018 89.19999999999997 1.999999999999995
    vertex 25.500000000000078 89.19999999999997 5.499999999999998
    vertex 58.900000000000084 89.19999999999997 1.999999999999995
  endloop
endfacet
facet normal 0.0 1.0 0.0
  outer loop
    vertex 25.500000000000078 89.19999999999997 5.499999999999998
    vertex 8.900000000000018 89.19999999999997 1.999999999999995
    vertex 8.900000000000018 89.19999999999997 27.5
  endloop
endfacet
facet normal 0.0 1.0 0.0
  outer loop
    vertex 25.500000000000078 89.19999999999997 5.499999999999998
    vertex 8.900000000000018 89.19999999999997 27.5
    vertex 25.500000000000078 89.19999999999997 13.500000000000004
  endloop
endfacet
facet normal 0.0 1.0 0.0
  outer loop
    vertex 25.500000000000078 89.19999999999997 13.500000000000004
    vertex 8.900000000000018 89.19999999999997 27.5
    vertex 40.50000000000005 89.19999999999997 13.500000000000004
  endloop
endfacet
facet normal 0.0 1.0 0.0
  outer loop
    vertex 58.900000000000084 89.19999999999997 1.999999999999995
    vertex 49.39844396239327 89.19999999999997 9.060911801070487
    vertex 58.900000000000084 89.19999999999997 27.5
  endloop
endfacet
facet normal 0.0 1.0 0.0
  outer loop
    vertex 49.39844396239327 89.19999999999997 9.060911801070487
    vertex 58.900000000000084 89.19999999999997 1.999999999999995
    vertex 49.25418583838643 89.19999999999997 8.843338960210493
  endloop
endfacet
facet normal 0.0 1.0 0.0
  outer loop
    vertex 49.25418583838643 89.19999999999997 8.843338960210493
    vertex 58.900000000000084 89.19999999999997 1.999999999999995
    vertex 49.05853119584457 89.19999999999997 8.670516484028475
  endloop
endfacet
facet normal 0.0 1.0 0.0
  outer loop
    vertex 49.05853119584457 89.19999999999997 8.670516484028475
    vertex 58.900000000000084 89.19999999999997 1.999999999999995
    vertex 48.824813575322366 89.19999999999997 8.554221938673592
  endloop
endfacet
facet normal 0.0 1.0 0.0
  outer loop
    vertex 48.824813575322366 89.19999999999997 8.554221938673592
    vertex 58.900000000000084 89.19999999999997 1.999999999999995
    vertex 40.50000000000005 89.19999999999997 5.499999999999998
  endloop
endfacet
facet normal 0.0 1.0 0.0
  outer loop
    vertex 40.50000000000005 89.19999999999997 5.499999999999998
    vertex 58.900000000000084 89.19999999999997 1.999999999999995
    vertex 25.500000000000078 89.19999999999997 5.499999999999998
  endloop
endfacet
facet normal 0.0 1.0 0.0
  outer loop
    vertex 48.824813575322366 89.19999999999997 8.554221938673592
    vertex 40.50000000000005 89.19999999999997 5.499999999999998
    vertex 48.56896044642175 89.19999999999997 8.502380605225959
  endloop
endfacet
facet normal 0.0 1.0 0.0
  outer loop
    vertex 58.900000000000084 89.19999999999997 27.5
    vertex 49.39844396239327 89.19999999999997 9.060911801070487
    vertex 49.48147461511187 89.19999999999997 9.308407777059971
  endloop
endfacet
facet normal 0.0 1.0 0.0
  outer loop
    vertex 58.900000000000084 89.19999999999997 27.5
    vertex 49.48147461511187 89.19999999999997 9.308407777059971
    vertex 49.497619394774084 89.19999999999997 9.5689604464217
  endloop
endfacet
facet normal 0.0 1.0 0.0
  outer loop
    vertex 58.900000000000084 89.19999999999997 27.5
    vertex 49.497619394774084 89.19999999999997 9.5689604464217
    vertex 49.44577806132645 89.19999999999997 9.824813575322315
  endloop
endfacet
facet normal 0.0 1.0 0.0
  outer loop
    vertex 58.900000000000084 89.19999999999997 27.5
    vertex 49.44577806132645 89.19999999999997 9.824813575322315
    vertex 49.32948351597157 89.19999999999997 10.058531195844527
  endloop
endfacet
facet normal 0.0 1.0 0.0
  outer loop
    vertex 58.900000000000084 89.19999999999997 27.5
    vertex 49.32948351597157 89.19999999999997 10.058531195844527
    vertex 49.156661039789554 89.19999999999997 10.254185838386377
  endloop
endfacet
facet normal 0.0 1.0 0.0
  outer loop
    vertex 58.900000000000084 89.19999999999997 27.5
    vertex 49.156661039789554 89.19999999999997 10.254185838386377
    vertex 48.939088198929554 89.19999999999997 10.398443962393223
  endloop
endfacet
facet normal 0.0 1.0 0.0
  outer loop
    vertex 58.900000000000084 89.19999999999997 27.5
    vertex 48.939088198929554 89.19999999999997 10.398443962393223
    vertex 48.69159222294007 89.19999999999997 10.48147461511182
  endloop
endfacet
facet normal 0.0 1.0 0.0
  outer loop
    vertex 58.900000000000084 89.19999999999997 27.5
    vertex 48.69159222294007 89.19999999999997 10.48147461511182
    vertex 48.431039553578344 89.19999999999997 10.497619394774038
  endloop
endfacet
facet normal 0.0 1.0 0.0
  outer loop
    vertex 58.900000000000084 89.19999999999997 27.5
    vertex 48.431039553578344 89.19999999999997 10.497619394774038
    vertex 40.50000000000005 89.19999999999997 13.500000000000004
  endloop
endfacet
facet normal 0.0 1.0 0.0
  outer loop
    vertex 58.900000000000084 89.19999999999997 27.5
    vertex 40.50000000000005 89.19999999999997 13.500000000000004
    vertex 8.900000000000018 89.19999999999997 27.5
  endloop
endfacet
facet normal 1.0 -1.5106963299363733e-16 0.0
  outer loop
    vertex 25.500000000000078 89.19999999999997 5.499999999999998
    vertex 25.500000000000078 87.69999999999997 13.500000000000004
    vertex 25.500000000000078 87.69999999999997 5.499999999999998
  endloop
endfacet
facet normal 1.0 -1.5106963299363733e-16 0.0
  outer loop
    vertex 25.500000000000078 87.69999999999997 13.500000000000004
    vertex 25.500000000000078 89.19999999999997 5.499999999999998
    vertex 25.500000000000078 89.19999999999997 13.500000000000004
  endloop
endfacet
facet normal 0.0 1.1102230246251563e-16 1.0
  outer loop
    vertex 58.900000000000084 87.69999999999997 27.5
    vertex 8.900000000000018 89.19999999999997 27.5
    vertex 8.900000000000018 87.69999999999997 27.5
  endloop
endfacet
facet normal 0.0 1.1102230246251563e-16 1.0
  outer loop
    vertex 8.900000000000018 89.19999999999997 27.5
    vertex 58.900000000000084 87.69999999999997 27.5
    vertex 58.900000000000084 89.19999999999997 27.5
  endloop
endfacet
facet normal 0.0 -1.1102230246251563e-16 -1.0
  outer loop
    vertex 58.900000000000084 89.19999999999997 1.999999999999995
    vertex 8.900000000000018 87.69999999999997 1.999999999999995
    vertex 8.900000000000018 89.19999999999997 1.999999999999995
  endloop
endfacet
facet normal 0.0 -1.1102230246251563e-16 -1.0
  outer loop
    vertex 8.900000000000018 87.69999999999997 1.999999999999995
    vertex 58.900000000000084 89.19999999999997 1.999999999999995
    vertex 58.900000000000084 87.69999999999997 1.999999999999995
  endloop
endfacet
facet normal -1.0 0.0 0.0
  outer loop
    vertex 8.900000000000018 89.19999999999997 27.5
    vertex 8.900000000000018 87.69999999999997 1.999999999999995
    vertex 8.900000000000018 87.69999999999997 27.5
  endloop
endfacet
facet normal -1.0 0.0 0.0
  outer loop
    vertex 8.900000000000018 87.69999999999997 1.999999999999995
    vertex 8.900000000000018 89.19999999999997 27.5
    vertex 8.900000000000018 89.19999999999997 1.999999999999995
  endloop
endfacet
facet normal 2.0286252455850916e-32 1.0071308866242491e-16 1.0
  outer loop
    vertex 40.50000000000005 87.69999999999997 5.499999999999998
    vertex 25.500000000000078 89.19999999999997 5.499999999999998
    vertex 25.500000000000078 87.69999999999997 5.499999999999998
  endloop
endfacet
facet normal 2.0286252455850916e-32 1.0071308866242491e-16 1.0
  outer loop
    vertex 25.500000000000078 89.19999999999997 5.499999999999998
    vertex 40.50000000000005 87.69999999999997 5.499999999999998
    vertex 40.50000000000005 89.19999999999997 5.499999999999998
  endloop
endfacet
facet normal 0.6620222088860883 -1.9866855416269716e-30 -0.7494842192745518
  outer loop
    vertex 47.94146880415552 89.19999999999997 10.329483515971521
    vertex 47.745814161613666 87.69999999999997 10.156661039789503
    vertex 47.745814161613666 89.19999999999997 10.156661039789503
  endloop
endfacet
facet normal 0.6620222088860883 -1.9866855416269716e-30 -0.7494842192745518
  outer loop
    vertex 47.745814161613666 87.69999999999997 10.156661039789503
    vertex 47.94146880415552 89.19999999999997 10.329483515971521
    vertex 47.94146880415552 87.69999999999997 10.329483515971521
  endloop
endfacet
facet normal 0.44548355918796345 -2.3731786349798407e-30 -0.8952901197339466
  outer loop
    vertex 48.17518642467773 89.19999999999997 10.445778061326402
    vertex 47.94146880415552 87.69999999999997 10.329483515971521
    vertex 47.94146880415552 89.19999999999997 10.329483515971521
  endloop
endfacet
facet normal 0.44548355918796345 -2.3731786349798407e-30 -0.8952901197339466
  outer loop
    vertex 47.94146880415552 87.69999999999997 10.329483515971521
    vertex 48.17518642467773 89.19999999999997 10.445778061326402
    vertex 48.17518642467773 87.69999999999997 10.445778061326402
  endloop
endfacet
facet normal 0.19858594112757 -2.5979435262219626e-30 -0.9800834780703516
  outer loop
    vertex 48.431039553578344 89.19999999999997 10.497619394774038
    vertex 48.17518642467773 87.69999999999997 10.445778061326402
    vertex 48.17518642467773 89.19999999999997 10.445778061326402
  endloop
endfacet
facet normal 0.19858594112757 -2.5979435262219626e-30 -0.9800834780703516
  outer loop
    vertex 48.17518642467773 87.69999999999997 10.445778061326402
    vertex 48.431039553578344 89.19999999999997 10.497619394774038
    vertex 48.431039553578344 87.69999999999997 10.497619394774038
  endloop
endfacet
facet normal -0.06184498064188805 -2.6456628594567317e-30 -0.9980857670407912
  outer loop
    vertex 48.69159222294007 89.19999999999997 10.48147461511182
    vertex 48.431039553578344 87.69999999999997 10.497619394774038
    vertex 48.431039553578344 89.19999999999997 10.497619394774038
  endloop
endfacet
facet normal -0.06184498064188805 -2.6456628594567317e-30 -0.9980857670407912
  outer loop
    vertex 48.431039553578344 87.69999999999997 10.497619394774038
    vertex 48.69159222294007 89.19999999999997 10.48147461511182
    vertex 48.69159222294007 87.69999999999997 10.48147461511182
  endloop
endfacet
facet normal -0.3180612691842644 -2.513084640984119e-30 -0.9480701604021164
  outer loop
    vertex 48.939088198929554 89.19999999999997 10.398443962393223
    vertex 48.69159222294007 87.69999999999997 10.48147461511182
    vertex 48.69159222294007 89.19999999999997 10.48147461511182
  endloop
endfacet
facet normal -0.3180612691842644 -2.513084640984119e-30 -0.9480701604021164
  outer loop
    vertex 48.69159222294007 87.69999999999997 10.48147461511182
    vertex 48.939088198929554 89.19999999999997 10.398443962393223
    vertex 48.939088198929554 87.69999999999997 10.398443962393223
  endloop
endfacet
facet normal -0.5526022078528255 -2.2092438572971807e-30 -0.8334451390920596
  outer loop
    vertex 49.156661039789554 89.19999999999997 10.254185838386377
    vertex 48.939088198929554 87.69999999999997 10.398443962393223
    vertex 48.939088198929554 89.19999999999997 10.398443962393223
  endloop
endfacet
facet normal -0.5526022078528255 -2.2092438572971807e-30 -0.8334451390920596
  outer loop
    vertex 48.939088198929554 87.69999999999997 10.398443962393223
    vertex 49.156661039789554 89.19999999999997 10.254185838386377
    vertex 49.156661039789554 87.69999999999997 10.254185838386377
  endloop
endfacet
facet normal -0.7494842192745494 -1.7548467556835283e-30 -0.662022208886091
  outer loop
    vertex 49.156661039789554 89.19999999999997 10.254185838386377
    vertex 49.32948351597157 87.69999999999997 10.058531195844527
    vertex 49.156661039789554 87.69999999999997 10.254185838386377
  endloop
endfacet
facet normal -0.7494842192745494 -1.7548467556835283e-30 -0.662022208886091
  outer loop
    vertex 49.32948351597157 87.69999999999997 10.058531195844527
    vertex 49.156661039789554 89.19999999999997 10.254185838386377
    vertex 49.32948351597157 89.19999999999997 10.058531195844527
  endloop
endfacet
facet normal -0.8952901197339487 -1.180859747691413e-30 -0.44548355918795907
  outer loop
    vertex 49.32948351597157 89.19999999999997 10.058531195844527
    vertex 49.44577806132645 87.69999999999997 9.824813575322315
    vertex 49.32948351597157 87.69999999999997 10.058531195844527
  endloop
endfacet
facet normal -0.8952901197339487 -1.180859747691413e-30 -0.44548355918795907
  outer loop
    vertex 49.44577806132645 87.69999999999997 9.824813575322315
    vertex 49.32948351597157 89.19999999999997 10.058531195844527
    vertex 49.44577806132645 89.19999999999997 9.824813575322315
  endloop
endfacet
facet normal -0.9800834780703519 -5.263990993571588e-31 -0.19858594112756897
  outer loop
    vertex 49.44577806132645 89.19999999999997 9.824813575322315
    vertex 49.497619394774084 87.69999999999997 9.5689604464217
    vertex 49.44577806132645 87.69999999999997 9.824813575322315
  endloop
endfacet
facet normal -0.9800834780703519 -5.263990993571588e-31 -0.19858594112756897
  outer loop
    vertex 49.497619394774084 87.69999999999997 9.5689604464217
    vertex 49.44577806132645 89.19999999999997 9.824813575322315
    vertex 49.497619394774084 89.19999999999997 9.5689604464217
  endloop
endfacet
facet normal -0.9980857670407914 1.6393477768265067e-31 0.06184498064188333
  outer loop
    vertex 49.497619394774084 89.19999999999997 9.5689604464217
    vertex 49.48147461511187 87.69999999999997 9.308407777059971
    vertex 49.497619394774084 87.69999999999997 9.5689604464217
  endloop
endfacet
facet normal -0.9980857670407914 1.6393477768265067e-31 0.06184498064188333
  outer loop
    vertex 49.48147461511187 87.69999999999997 9.308407777059971
    vertex 49.497619394774084 89.19999999999997 9.5689604464217
    vertex 49.48147461511187 89.19999999999997 9.308407777059971
  endloop
endfacet
facet normal -0.9480701604021192 8.430967705384228e-31 0.3180612691842563
  outer loop
    vertex 49.48147461511187 89.19999999999997 9.308407777059971
    vertex 49.39844396239327 87.69999999999997 9.060911801070487
    vertex 49.48147461511187 87.69999999999997 9.308407777059971
  endloop
endfacet
facet normal -0.9480701604021192 8.430967705384228e-31 0.3180612691842563
  outer loop
    vertex 49.39844396239327 87.69999999999997 9.060911801070487
    vertex 49.48147461511187 89.19999999999997 9.308407777059971
    vertex 49.39844396239327 89.19999999999997 9.060911801070487
  endloop
endfacet
facet normal -0.8334451390920581 1.4648031117653083e-30 0.5526022078528281
  outer loop
    vertex 49.39844396239327 89.19999999999997 9.060911801070487
    vertex 49.25418583838643 87.69999999999997 8.843338960210493
    vertex 49.39844396239327 87.69999999999997 9.060911801070487
  endloop
endfacet
facet normal -0.8334451390920581 1.4648031117653083e-30 0.5526022078528281
  outer loop
    vertex 49.25418583838643 87.69999999999997 8.843338960210493
    vertex 49.39844396239327 89.19999999999997 9.060911801070487
    vertex 49.25418583838643 89.19999999999997 8.843338960210493
  endloop
endfacet
facet normal -0.6620222088860883 1.9866855416269716e-30 0.7494842192745518
  outer loop
    vertex 49.25418583838643 87.69999999999997 8.843338960210493
    vertex 49.05853119584457 89.19999999999997 8.670516484028475
    vertex 49.05853119584457 87.69999999999997 8.670516484028475
  endloop
endfacet
facet normal -0.6620222088860883 1.9866855416269716e-30 0.7494842192745518
  outer loop
    vertex 49.05853119584457 89.19999999999997 8.670516484028475
    vertex 49.25418583838643 87.69999999999997 8.843338960210493
    vertex 49.25418583838643 89.19999999999997 8.843338960210493
  endloop
endfacet
facet normal -0.44548355918796345 2.3731786349798407e-30 0.8952901197339466
  outer loop
    vertex 49.05853119584457 87.69999999999997 8.670516484028475
    vertex 48.824813575322366 89.19999999999997 8.554221938673592
    vertex 48.824813575322366 87.69999999999997 8.554221938673592
  endloop
endfacet
facet normal -0.44548355918796345 2.3731786349798407e-30 0.8952901197339466
  outer loop
    vertex 48.824813575322366 89.19999999999997 8.554221938673592
    vertex 49.05853119584457 87.69999999999997 8.670516484028475
    vertex 49.05853119584457 89.19999999999997 8.670516484028475
  endloop
endfacet
facet normal -0.19858594112757 2.5979435262219626e-30 0.9800834780703516
  outer loop
    vertex 48.824813575322366 87.69999999999997 8.554221938673592
    vertex 48.56896044642175 89.19999999999997 8.502380605225959
    vertex 48.56896044642175 87.69999999999997 8.502380605225959
  endloop
endfacet
facet normal -0.19858594112757 2.5979435262219626e-30 0.9800834780703516
  outer loop
    vertex 48.56896044642175 89.19999999999997 8.502380605225959
    vertex 48.824813575322366 87.69999999999997 8.554221938673592
    vertex 48.824813575322366 89.19999999999997 8.554221938673592
  endloop
endfacet
facet normal 0.06184498064188805 2.6456628594567317e-30 0.9980857670407912
  outer loop
    vertex 48.56896044642175 87.69999999999997 8.502380605225959
    vertex 48.30840777706002 89.19999999999997 8.518525384888177
    vertex 48.30840777706002 87.69999999999997 8.518525384888177
  endloop
endfacet
facet normal 0.06184498064188805 2.6456628594567317e-30 0.9980857670407912
  outer loop
    vertex 48.30840777706002 89.19999999999997 8.518525384888177
    vertex 48.56896044642175 87.69999999999997 8.502380605225959
    vertex 48.56896044642175 89.19999999999997 8.502380605225959
  endloop
endfacet
facet normal 0.3180612691842644 2.513084640984119e-30 0.9480701604021164
  outer loop
    vertex 48.30840777706002 87.69999999999997 8.518525384888177
    vertex 48.06091180107054 89.19999999999997 8.601556037606773
    vertex 48.06091180107054 87.69999999999997 8.601556037606773
  endloop
endfacet
facet normal 0.3180612691842644 2.513084640984119e-30 0.9480701604021164
  outer loop
    vertex 48.06091180107054 89.19999999999997 8.601556037606773
    vertex 48.30840777706002 87.69999999999997 8.518525384888177
    vertex 48.30840777706002 89.19999999999997 8.518525384888177
  endloop
endfacet
facet normal 0.5526022078528255 2.2092438572971807e-30 0.8334451390920596
  outer loop
    vertex 48.06091180107054 87.69999999999997 8.601556037606773
    vertex 47.84333896021054 89.19999999999997 8.74581416161362
    vertex 47.84333896021054 87.69999999999997 8.74581416161362
  endloop
endfacet
facet normal 0.5526022078528255 2.2092438572971807e-30 0.8334451390920596
  outer loop
    vertex 47.84333896021054 89.19999999999997 8.74581416161362
    vertex 48.06091180107054 87.69999999999997 8.601556037606773
    vertex 48.06091180107054 89.19999999999997 8.601556037606773
  endloop
endfacet
facet normal 0.7494842192745494 1.7548467556835283e-30 0.662022208886091
  outer loop
    vertex 47.84333896021054 89.19999999999997 8.74581416161362
    vertex 47.670516484028525 87.69999999999997 8.94146880415547
    vertex 47.84333896021054 87.69999999999997 8.74581416161362
  endloop
endfacet
facet normal 0.7494842192745494 1.7548467556835283e-30 0.662022208886091
  outer loop
    vertex 47.670516484028525 87.69999999999997 8.94146880415547
    vertex 47.84333896021054 89.19999999999997 8.74581416161362
    vertex 47.670516484028525 89.19999999999997 8.94146880415547
  endloop
endfacet
facet normal 0.8952901197339487 1.180859747691413e-30 0.44548355918795907
  outer loop
    vertex 47.670516484028525 89.19999999999997 8.94146880415547
    vertex 47.55422193867364 87.69999999999997 9.175186424677682
    vertex 47.670516484028525 87.69999999999997 8.94146880415547
  endloop
endfacet
facet normal 0.8952901197339487 1.180859747691413e-30 0.44548355918795907
  outer loop
    vertex 47.55422193867364 87.69999999999997 9.175186424677682
    vertex 47.670516484028525 89.19999999999997 8.94146880415547
    vertex 47.55422193867364 89.19999999999997 9.175186424677682
  endloop
endfacet
facet normal 0.9800834780703519 5.263990993571588e-31 0.19858594112756897
  outer loop
    vertex 47.55422193867364 89.19999999999997 9.175186424677682
    vertex 47.50238060522601 87.69999999999997 9.431039553578296
    vertex 47.55422193867364 87.69999999999997 9.175186424677682
  endloop
endfacet
facet normal 0.9800834780703519 5.263990993571588e-31 0.19858594112756897
  outer loop
    vertex 47.50238060522601 87.69999999999997 9.431039553578296
    vertex 47.55422193867364 89.19999999999997 9.175186424677682
    vertex 47.50238060522601 89.19999999999997 9.431039553578296
  endloop
endfacet
facet normal 0.9980857670407914 -1.6393477768265157e-31 -0.061844980641883665
  outer loop
    vertex 47.50238060522601 89.19999999999997 9.431039553578296
    vertex 47.51852538488822 87.69999999999997 9.691592222940024
    vertex 47.50238060522601 87.69999999999997 9.431039553578296
  endloop
endfacet
facet normal 0.9980857670407914 -1.6393477768265157e-31 -0.061844980641883665
  outer loop
    vertex 47.51852538488822 87.69999999999997 9.691592222940024
    vertex 47.50238060522601 89.19999999999997 9.431039553578296
    vertex 47.51852538488822 89.19999999999997 9.691592222940024
  endloop
endfacet
facet normal 0.9480701604021198 -8.430967705384184e-31 -0.3180612691842547
  outer loop
    vertex 47.51852538488822 89.19999999999997 9.691592222940024
    vertex 47.60155603760682 87.69999999999997 9.939088198929507
    vertex 47.51852538488822 87.69999999999997 9.691592222940024
  endloop
endfacet
facet normal 0.9480701604021198 -8.430967705384184e-31 -0.3180612691842547
  outer loop
    vertex 47.60155603760682 87.69999999999997 9.939088198929507
    vertex 47.51852538488822 89.19999999999997 9.691592222940024
    vertex 47.60155603760682 89.19999999999997 9.939088198929507
  endloop
endfacet
facet normal 0.8334451390920581 -1.4648031117653083e-30 -0.5526022078528281
  outer loop
    vertex 47.60155603760682 89.19999999999997 9.939088198929507
    vertex 47.745814161613666 87.69999999999997 10.156661039789503
    vertex 47.60155603760682 87.69999999999997 9.939088198929507
  endloop
endfacet
facet normal 0.8334451390920581 -1.4648031117653083e-30 -0.5526022078528281
  outer loop
    vertex 47.745814161613666 87.69999999999997 10.156661039789503
    vertex 47.60155603760682 89.19999999999997 9.939088198929507
    vertex 47.745814161613666 89.19999999999997 10.156661039789503
  endloop
endfacet
endsolid Bowl_Leds
